<svg width="38" height="38" viewBox="0 0 38 38" fill="none" xmlns="http://www.w3.org/2000/svg">
<path d="M32.2303 12.3332H34.0003C34.8844 12.3332 35.7322 12.6844 36.3573 13.3095C36.9825 13.9346 37.3337 14.7825 37.3337 15.6665V22.3332C37.3337 23.2173 36.9825 24.0651 36.3573 24.6902C35.7322 25.3154 34.8844 25.6665 34.0003 25.6665H32.2303C31.824 28.8887 30.2558 31.8518 27.8199 33.9999C25.384 36.1479 22.248 37.3332 19.0003 37.3332V33.9999C21.6525 33.9999 24.196 32.9463 26.0714 31.0709C27.9468 29.1956 29.0003 26.652 29.0003 23.9999V13.9999C29.0003 11.3477 27.9468 8.80417 26.0714 6.92881C24.196 5.05344 21.6525 3.99987 19.0003 3.99987C16.3482 3.99987 13.8046 5.05344 11.9293 6.92881C10.0539 8.80417 9.00033 11.3477 9.00032 13.9999V25.6665H4.00033C3.11627 25.6665 2.26842 25.3154 1.6433 24.6902C1.01818 24.0651 0.666992 23.2173 0.666992 22.3332V15.6665C0.666992 14.7825 1.01818 13.9346 1.6433 13.3095C2.26842 12.6844 3.11627 12.3332 4.00033 12.3332H5.77032C6.17704 9.11137 7.74546 6.14866 10.1813 4.001C12.6171 1.85334 15.7529 0.668335 19.0003 0.668335C22.2477 0.668335 25.3835 1.85334 27.8194 4.001C30.2552 6.14866 31.8236 9.11137 32.2303 12.3332ZM4.00033 15.6665V22.3332H5.66699V15.6665H4.00033ZM32.3337 15.6665V22.3332H34.0003V15.6665H32.3337ZM11.9337 25.3082L13.7003 22.4815C15.2888 23.4766 17.1259 24.0029 19.0003 23.9999C20.8747 24.0029 22.7119 23.4766 24.3003 22.4815L26.067 25.3082C23.9491 26.6351 21.4996 27.337 19.0003 27.3332C16.5011 27.337 14.0516 26.6351 11.9337 25.3082Z" fill="black"/>
</svg>
